<svg width="357" height="357" viewBox="0 0 357 357" fill="none" xmlns="http://www.w3.org/2000/svg">
<circle cx="178.5" cy="178.5" r="178.5" fill="white"/>
<path d="M111 221C111.8 219 157.333 175.167 180 153L249.5 222" stroke="#F14726" stroke-width="23" stroke-linecap="round" stroke-linejoin="round"/>
<path d="M150.5 277.5L179.5 248.5L208.5 277.5" stroke="#F8A62C" stroke-width="23" stroke-linecap="round" stroke-linejoin="round"/>
<path d="M193.942 131.661L235.871 171.429C236.621 172.14 237.454 172.759 238.351 173.272L239.613 173.993C241.321 174.969 243.308 175.34 245.253 175.047L245.688 174.981C247.727 174.673 249.557 173.56 250.767 171.891C251.882 170.352 252.389 168.454 252.188 166.563L248.04 127.576C247.688 124.268 246.351 121.142 244.203 118.603C242.749 116.886 240.962 115.481 238.95 114.475L238.744 114.372C236.282 113.141 233.567 112.5 230.814 112.5H181H179H129.186C126.433 112.5 123.718 113.141 121.256 114.372L121.05 114.475C119.038 115.481 117.251 116.886 115.797 118.603C113.649 121.142 112.312 124.268 111.96 127.576L107.812 166.563C107.611 168.454 108.118 170.352 109.233 171.891C110.443 173.56 112.273 174.673 114.312 174.981L114.747 175.047C116.692 175.34 118.679 174.969 120.387 173.993L121.649 173.272C122.546 172.759 123.379 172.14 124.129 171.429L166.058 131.661C169.552 128.347 174.184 126.5 179 126.5H181C185.816 126.5 190.448 128.347 193.942 131.661Z" fill="#EF2F33"/>
<path d="M235.871 171.429L236.215 171.066L236.215 171.066L235.871 171.429ZM193.942 131.661L193.598 132.024L193.598 132.024L193.942 131.661ZM248.04 127.576L248.537 127.523L248.537 127.523L248.04 127.576ZM252.188 166.563L252.685 166.511L252.685 166.511L252.188 166.563ZM238.744 114.372L238.521 114.819L238.521 114.819L238.744 114.372ZM238.95 114.475L239.174 114.028L239.174 114.028L238.95 114.475ZM239.613 173.993L239.861 173.559L239.861 173.559L239.613 173.993ZM238.351 173.272L238.6 172.838L238.6 172.838L238.351 173.272ZM245.688 174.981L245.763 175.475L245.763 175.475L245.688 174.981ZM245.253 175.047L245.179 174.552L245.179 174.552L245.253 175.047ZM124.129 171.429L124.473 171.792L124.473 171.792L124.129 171.429ZM166.058 131.661L166.402 132.024L166.402 132.024L166.058 131.661ZM111.96 127.576L111.463 127.523L111.96 127.576ZM107.812 166.563L107.315 166.511L107.315 166.511L107.812 166.563ZM121.256 114.372L121.032 113.925L121.032 113.925L121.256 114.372ZM121.05 114.475L121.273 114.922L121.273 114.922L121.05 114.475ZM120.387 173.993L120.635 174.427L120.635 174.427L120.387 173.993ZM121.649 173.272L121.897 173.706L121.897 173.706L121.649 173.272ZM114.312 174.981L114.237 175.475L114.237 175.475L114.312 174.981ZM114.747 175.047L114.821 174.552L114.821 174.552L114.747 175.047ZM109.233 171.891L109.638 171.597L109.638 171.597L109.233 171.891ZM115.797 118.603L116.179 118.926L116.179 118.926L115.797 118.603ZM250.767 171.891L251.171 172.184L251.171 172.184L250.767 171.891ZM244.203 118.603L244.584 118.28L244.584 118.28L244.203 118.603ZM236.215 171.066L194.286 131.298L193.598 132.024L235.527 171.792L236.215 171.066ZM247.543 127.629L251.69 166.616L252.685 166.511L248.537 127.523L247.543 127.629ZM238.521 114.819L238.727 114.922L239.174 114.028L238.968 113.925L238.521 114.819ZM239.861 173.559L238.6 172.838L238.103 173.706L239.365 174.427L239.861 173.559ZM245.614 174.487L245.179 174.552L245.328 175.541L245.763 175.475L245.614 174.487ZM181 113H230.814V112H181V113ZM124.473 171.792L166.402 132.024L165.714 131.298L123.785 171.066L124.473 171.792ZM111.463 127.523L107.315 166.511L108.31 166.616L112.457 127.629L111.463 127.523ZM121.032 113.925L120.826 114.028L121.273 114.922L121.479 114.819L121.032 113.925ZM120.635 174.427L121.897 173.706L121.4 172.838L120.139 173.559L120.635 174.427ZM114.237 175.475L114.672 175.541L114.821 174.552L114.386 174.487L114.237 175.475ZM179 112H129.186V113H179V112ZM179 113H181V112H179V113ZM179 127H181V126H179V127ZM108.829 172.184C110.117 173.962 112.066 175.148 114.237 175.475L114.386 174.487C112.48 174.199 110.77 173.158 109.638 171.597L108.829 172.184ZM120.139 173.559C118.529 174.479 116.655 174.829 114.821 174.552L114.672 175.541C116.728 175.851 118.83 175.459 120.635 174.427L120.139 173.559ZM120.826 114.028C118.753 115.064 116.913 116.511 115.416 118.28L116.179 118.926C117.589 117.26 119.322 115.898 121.273 114.922L120.826 114.028ZM121.479 114.819C123.872 113.623 126.511 113 129.186 113V112C126.356 112 123.564 112.659 121.032 113.925L121.479 114.819ZM107.315 166.511C107.101 168.524 107.64 170.545 108.829 172.184L109.638 171.597C108.595 170.158 108.122 168.384 108.31 166.616L107.315 166.511ZM123.785 171.066C123.064 171.75 122.263 172.345 121.4 172.838L121.897 173.706C122.829 173.174 123.694 172.531 124.473 171.792L123.785 171.066ZM250.362 171.597C249.23 173.158 247.52 174.199 245.614 174.487L245.763 175.475C247.934 175.148 249.883 173.962 251.171 172.184L250.362 171.597ZM239.365 174.427C241.17 175.459 243.272 175.851 245.328 175.541L245.179 174.552C243.345 174.829 241.471 174.479 239.861 173.559L239.365 174.427ZM238.727 114.922C240.678 115.898 242.411 117.26 243.821 118.926L244.584 118.28C243.087 116.511 241.247 115.064 239.174 114.028L238.727 114.922ZM248.537 127.523C248.175 124.116 246.798 120.896 244.584 118.28L243.821 118.926C245.905 121.389 247.202 124.421 247.543 127.629L248.537 127.523ZM194.286 131.298C190.699 127.896 185.944 126 181 126V127C185.688 127 190.197 128.798 193.598 132.024L194.286 131.298ZM235.527 171.792C236.306 172.531 237.171 173.174 238.103 173.706L238.6 172.838C237.737 172.345 236.936 171.75 236.215 171.066L235.527 171.792ZM112.457 127.629C112.798 124.421 114.095 121.389 116.179 118.926L115.416 118.28C113.202 120.896 111.825 124.116 111.463 127.523L112.457 127.629ZM251.69 166.616C251.878 168.384 251.405 170.158 250.362 171.597L251.171 172.184C252.36 170.545 252.899 168.524 252.685 166.511L251.69 166.616ZM166.402 132.024C169.803 128.798 174.312 127 179 127V126C174.056 126 169.301 127.896 165.714 131.298L166.402 132.024ZM238.968 113.925C236.436 112.659 233.644 112 230.814 112V113C233.489 113 236.128 113.623 238.521 114.819L238.968 113.925Z" fill="#EF2F33"/>
<path d="M111 268C111.8 266 157.333 222.167 180 200L249.5 269" stroke="#F58816" stroke-width="23" stroke-linecap="round" stroke-linejoin="round"/>
<path d="M144 95C144 98.3137 146.686 101 150 101C153.314 101 156 98.3137 156 95H144ZM203.5 95C203.5 98.3137 206.186 101 209.5 101C212.814 101 215.5 98.3137 215.5 95H203.5ZM204.219 67.744L209.273 64.5107L204.219 67.744ZM156 95V84.6399H144V95H156ZM203.5 85.8008V95H215.5V85.8008H203.5ZM198.305 69.6333L199.164 70.9772L209.273 64.5107L208.413 63.1668L198.305 69.6333ZM159.528 71.5428L160.177 70.4252L149.801 64.3977L149.152 65.5153L159.528 71.5428ZM188.188 61.0931C192.344 62.8543 195.874 65.8343 198.305 69.6333L208.413 63.1668C204.676 57.325 199.253 52.7493 192.871 50.0445L188.188 61.0931ZM192.871 50.0445C184.514 46.5027 175.083 46.4109 166.659 49.8017L171.139 60.9337C176.614 58.7302 182.75 58.7884 188.188 61.0931L192.871 50.0445ZM215.5 85.8008C215.5 78.255 213.339 70.8671 209.273 64.5107L199.164 70.9772C201.995 75.403 203.5 80.5469 203.5 85.8008H215.5ZM160.177 70.4252C162.673 66.1291 166.531 62.7889 171.139 60.9337L166.659 49.8017C159.571 52.6545 153.638 57.7912 149.801 64.3977L160.177 70.4252ZM156 84.6399C156 80.0394 157.217 75.5208 159.528 71.5428L149.152 65.5153C145.777 71.3241 144 77.9222 144 84.6399H156Z" fill="#203049"/>
</svg>
