<svg width="373" height="456" viewBox="0 0 373 456" fill="none" xmlns="http://www.w3.org/2000/svg">
<circle cx="186.5" cy="178.5" r="178.5" fill="white"/>
<path d="M119 221C119.8 219 165.333 175.167 188 153L257.5 222" stroke="#F14726" stroke-width="23" stroke-linecap="round" stroke-linejoin="round"/>
<path d="M158.5 277.5L187.5 248.5L216.5 277.5" stroke="#F8A62C" stroke-width="23" stroke-linecap="round" stroke-linejoin="round"/>
<path d="M201.942 131.661L243.871 171.429C244.621 172.14 245.454 172.759 246.351 173.272L247.613 173.993C249.321 174.969 251.308 175.34 253.253 175.047L253.688 174.981C255.727 174.673 257.557 173.56 258.767 171.891C259.882 170.352 260.389 168.454 260.188 166.563L256.04 127.576C255.688 124.268 254.351 121.142 252.203 118.603C250.749 116.886 248.962 115.481 246.95 114.475L246.744 114.372C244.282 113.141 241.567 112.5 238.814 112.5H189H187H137.186C134.433 112.5 131.718 113.141 129.256 114.372L129.05 114.475C127.038 115.481 125.251 116.886 123.797 118.603C121.649 121.142 120.312 124.268 119.96 127.576L115.812 166.563C115.611 168.454 116.118 170.352 117.233 171.891C118.443 173.56 120.273 174.673 122.312 174.981L122.747 175.047C124.692 175.34 126.679 174.969 128.387 173.993L129.649 173.272C130.546 172.759 131.379 172.14 132.129 171.429L174.058 131.661C177.552 128.347 182.184 126.5 187 126.5H189C193.816 126.5 198.448 128.347 201.942 131.661Z" fill="#EF2F33"/>
<path d="M243.871 171.429L244.215 171.066L244.215 171.066L243.871 171.429ZM201.942 131.661L201.598 132.024L201.598 132.024L201.942 131.661ZM256.04 127.576L256.537 127.523L256.537 127.523L256.04 127.576ZM260.188 166.563L260.685 166.511L260.685 166.511L260.188 166.563ZM246.744 114.372L246.521 114.819L246.521 114.819L246.744 114.372ZM246.95 114.475L247.174 114.028L247.174 114.028L246.95 114.475ZM247.613 173.993L247.861 173.559L247.861 173.559L247.613 173.993ZM246.351 173.272L246.6 172.838L246.6 172.838L246.351 173.272ZM253.688 174.981L253.763 175.475L253.763 175.475L253.688 174.981ZM253.253 175.047L253.179 174.552L253.179 174.552L253.253 175.047ZM132.129 171.429L132.473 171.792L132.473 171.792L132.129 171.429ZM174.058 131.661L174.402 132.024L174.402 132.024L174.058 131.661ZM119.96 127.576L119.463 127.523L119.96 127.576ZM115.812 166.563L115.315 166.511L115.315 166.511L115.812 166.563ZM129.256 114.372L129.032 113.925L129.032 113.925L129.256 114.372ZM129.05 114.475L129.273 114.922L129.273 114.922L129.05 114.475ZM128.387 173.993L128.635 174.427L128.635 174.427L128.387 173.993ZM129.649 173.272L129.897 173.706L129.897 173.706L129.649 173.272ZM122.312 174.981L122.237 175.475L122.237 175.475L122.312 174.981ZM122.747 175.047L122.821 174.552L122.821 174.552L122.747 175.047ZM117.233 171.891L117.638 171.597L117.638 171.597L117.233 171.891ZM123.797 118.603L124.179 118.926L124.179 118.926L123.797 118.603ZM258.767 171.891L259.171 172.184L259.171 172.184L258.767 171.891ZM252.203 118.603L252.584 118.28L252.584 118.28L252.203 118.603ZM244.215 171.066L202.286 131.298L201.598 132.024L243.527 171.792L244.215 171.066ZM255.543 127.629L259.69 166.616L260.685 166.511L256.537 127.523L255.543 127.629ZM246.521 114.819L246.727 114.922L247.174 114.028L246.968 113.925L246.521 114.819ZM247.861 173.559L246.6 172.838L246.103 173.706L247.365 174.427L247.861 173.559ZM253.614 174.487L253.179 174.552L253.328 175.541L253.763 175.475L253.614 174.487ZM189 113H238.814V112H189V113ZM132.473 171.792L174.402 132.024L173.714 131.298L131.785 171.066L132.473 171.792ZM119.463 127.523L115.315 166.511L116.31 166.616L120.457 127.629L119.463 127.523ZM129.032 113.925L128.826 114.028L129.273 114.922L129.479 114.819L129.032 113.925ZM128.635 174.427L129.897 173.706L129.4 172.838L128.139 173.559L128.635 174.427ZM122.237 175.475L122.672 175.541L122.821 174.552L122.386 174.487L122.237 175.475ZM187 112H137.186V113H187V112ZM187 113H189V112H187V113ZM187 127H189V126H187V127ZM116.829 172.184C118.117 173.962 120.066 175.148 122.237 175.475L122.386 174.487C120.48 174.199 118.77 173.158 117.638 171.597L116.829 172.184ZM128.139 173.559C126.529 174.479 124.655 174.829 122.821 174.552L122.672 175.541C124.728 175.851 126.83 175.459 128.635 174.427L128.139 173.559ZM128.826 114.028C126.753 115.064 124.913 116.511 123.416 118.28L124.179 118.926C125.589 117.26 127.322 115.898 129.273 114.922L128.826 114.028ZM129.479 114.819C131.872 113.623 134.511 113 137.186 113V112C134.356 112 131.564 112.659 129.032 113.925L129.479 114.819ZM115.315 166.511C115.101 168.524 115.64 170.545 116.829 172.184L117.638 171.597C116.595 170.158 116.122 168.384 116.31 166.616L115.315 166.511ZM131.785 171.066C131.064 171.75 130.263 172.345 129.4 172.838L129.897 173.706C130.829 173.174 131.694 172.531 132.473 171.792L131.785 171.066ZM258.362 171.597C257.23 173.158 255.52 174.199 253.614 174.487L253.763 175.475C255.934 175.148 257.883 173.962 259.171 172.184L258.362 171.597ZM247.365 174.427C249.17 175.459 251.272 175.851 253.328 175.541L253.179 174.552C251.345 174.829 249.471 174.479 247.861 173.559L247.365 174.427ZM246.727 114.922C248.678 115.898 250.411 117.26 251.821 118.926L252.584 118.28C251.087 116.511 249.247 115.064 247.174 114.028L246.727 114.922ZM256.537 127.523C256.175 124.116 254.798 120.896 252.584 118.28L251.821 118.926C253.905 121.389 255.202 124.421 255.543 127.629L256.537 127.523ZM202.286 131.298C198.699 127.896 193.944 126 189 126V127C193.688 127 198.197 128.798 201.598 132.024L202.286 131.298ZM243.527 171.792C244.306 172.531 245.171 173.174 246.103 173.706L246.6 172.838C245.737 172.345 244.936 171.75 244.215 171.066L243.527 171.792ZM120.457 127.629C120.798 124.421 122.095 121.389 124.179 118.926L123.416 118.28C121.202 120.896 119.825 124.116 119.463 127.523L120.457 127.629ZM259.69 166.616C259.878 168.384 259.405 170.158 258.362 171.597L259.171 172.184C260.36 170.545 260.899 168.524 260.685 166.511L259.69 166.616ZM174.402 132.024C177.803 128.798 182.312 127 187 127V126C182.056 126 177.301 127.896 173.714 131.298L174.402 132.024ZM246.968 113.925C244.436 112.659 241.644 112 238.814 112V113C241.489 113 244.128 113.623 246.521 114.819L246.968 113.925Z" fill="#EF2F33"/>
<path d="M119 268C119.8 266 165.333 222.167 188 200L257.5 269" stroke="#F58816" stroke-width="23" stroke-linecap="round" stroke-linejoin="round"/>
<path d="M152 95C152 98.3137 154.686 101 158 101C161.314 101 164 98.3137 164 95H152ZM211.5 95C211.5 98.3137 214.186 101 217.5 101C220.814 101 223.5 98.3137 223.5 95H211.5ZM212.219 67.744L217.273 64.5107L212.219 67.744ZM164 95V84.6399H152V95H164ZM211.5 85.8008V95H223.5V85.8008H211.5ZM206.305 69.6333L207.164 70.9772L217.273 64.5107L216.413 63.1668L206.305 69.6333ZM167.528 71.5428L168.177 70.4252L157.801 64.3977L157.152 65.5153L167.528 71.5428ZM196.188 61.0931C200.344 62.8543 203.874 65.8343 206.305 69.6333L216.413 63.1668C212.676 57.325 207.253 52.7493 200.871 50.0445L196.188 61.0931ZM200.871 50.0445C192.514 46.5027 183.083 46.4109 174.659 49.8017L179.139 60.9337C184.614 58.7302 190.75 58.7884 196.188 61.0931L200.871 50.0445ZM223.5 85.8008C223.5 78.255 221.339 70.8671 217.273 64.5107L207.164 70.9772C209.995 75.403 211.5 80.5469 211.5 85.8008H223.5ZM168.177 70.4252C170.673 66.1291 174.531 62.7889 179.139 60.9337L174.659 49.8017C167.571 52.6545 161.638 57.7912 157.801 64.3977L168.177 70.4252ZM164 84.6399C164 80.0394 165.217 75.5208 167.528 71.5428L157.152 65.5153C153.777 71.3241 152 77.9222 152 84.6399H164Z" fill="#203049"/>
</svg>
