
<svg viewBox="0 0 373 65" fill="none" xmlns="http://www.w3.org/2000/svg">
<g clip-path="url(#clip0)">
<path d="M27.456 65.088C21.184 65.088 16.096 64.256 12.192 62.592C8.288 60.864 5.344 58.496 3.36 55.488C1.44 52.48 0.32 49.088 0 45.312H7.488C7.68 48.384 8.704 50.88 10.56 52.8C12.416 54.656 14.848 56.032 17.856 56.928C20.928 57.824 24.288 58.272 27.936 58.272C33.312 58.272 37.568 57.344 40.704 55.488C43.84 53.568 45.408 50.752 45.408 47.04C45.408 44.8 44.608 43.008 43.008 41.664C41.472 40.256 39.392 39.104 36.768 38.208C34.208 37.312 31.392 36.512 28.32 35.808C25.248 35.04 22.144 34.24 19.008 33.408C15.936 32.576 13.088 31.52 10.464 30.24C7.904 28.96 5.824 27.328 4.224 25.344C2.688 23.296 1.92 20.704 1.92 17.568C1.92 12.384 3.904 8.16 7.872 4.896C11.904 1.632 17.888 0 25.824 0C31.456 0 36.096 0.86401 39.744 2.59201C43.392 4.25601 46.112 6.464 47.904 9.216C49.76 11.968 50.784 14.944 50.976 18.144H43.584C43.2 14.944 41.6 12.256 38.784 10.08C35.968 7.84002 31.648 6.72 25.824 6.72C22.24 6.72 19.328 7.072 17.088 7.776C14.848 8.48 13.12 9.408 11.904 10.56C10.752 11.648 9.952 12.8 9.504 14.016C9.12 15.232 8.928 16.384 8.928 17.472C8.928 19.584 9.696 21.312 11.232 22.656C12.832 23.936 14.912 25.024 17.472 25.92C20.096 26.752 22.976 27.52 26.112 28.224C29.248 28.928 32.352 29.728 35.424 30.624C38.56 31.456 41.408 32.544 43.968 33.888C46.592 35.168 48.672 36.832 50.208 38.88C51.808 40.928 52.608 43.552 52.608 46.752C52.608 52.64 50.368 57.184 45.888 60.384C41.408 63.52 35.264 65.088 27.456 65.088ZM63.7665 64.32V0.768005H70.9665V28.992H107.927V0.768005H115.127V64.32H107.927V36H70.9665V64.32H63.7665ZM158.928 65.088C154.128 65.088 149.744 64.256 145.776 62.592C141.808 60.928 138.384 58.592 135.504 55.584C132.688 52.576 130.512 49.12 128.976 45.216C127.44 41.248 126.672 37.024 126.672 32.544C126.672 28 127.44 23.776 128.976 19.872C130.512 15.968 132.688 12.512 135.504 9.504C138.384 6.496 141.808 4.16 145.776 2.496C149.744 0.832002 154.128 0 158.928 0C163.728 0 168.112 0.832002 172.08 2.496C176.048 4.16 179.44 6.496 182.256 9.504C185.136 12.512 187.344 15.968 188.88 19.872C190.416 23.776 191.184 28 191.184 32.544C191.184 37.024 190.416 41.248 188.88 45.216C187.344 49.12 185.136 52.576 182.256 55.584C179.44 58.592 176.048 60.928 172.08 62.592C168.112 64.256 163.728 65.088 158.928 65.088ZM158.928 58.08C164.112 58.08 168.56 56.96 172.272 54.72C176.048 52.416 178.928 49.344 180.912 45.504C182.96 41.6 183.984 37.28 183.984 32.544C183.984 27.744 182.96 23.424 180.912 19.584C178.928 15.744 176.048 12.704 172.272 10.464C168.56 8.16002 164.112 7.008 158.928 7.008C153.808 7.008 149.36 8.16002 145.584 10.464C141.808 12.704 138.896 15.744 136.848 19.584C134.864 23.424 133.872 27.744 133.872 32.544C133.872 37.28 134.864 41.6 136.848 45.504C138.896 49.344 141.808 52.416 145.584 54.72C149.36 56.96 153.808 58.08 158.928 58.08ZM202.704 64.32V0.768005H231.312C238.096 0.768005 243.44 2.624 247.344 6.336C251.248 9.984 253.2 14.944 253.2 21.216C253.2 27.488 251.248 32.48 247.344 36.192C243.44 39.84 238.096 41.664 231.312 41.664H209.904V64.32H202.704ZM209.904 34.944H230.832C235.824 34.944 239.6 33.728 242.16 31.296C244.72 28.864 246 25.504 246 21.216C246 16.992 244.72 13.664 242.16 11.232C239.6 8.79999 235.824 7.58401 230.832 7.58401H209.904V34.944ZM252.122 64.32L279.098 0.768005H288.122L315.098 64.32H307.13L299.354 45.888H267.866L260.09 64.32H252.122ZM270.65 39.264H296.57L283.61 8.25601L270.65 39.264ZM335.623 64.32V39.168L308.935 0.768005H317.671L339.175 31.68L360.679 0.768005H369.415L342.823 39.168V64.32H335.623Z" fill="black"/>
</g>

</svg>
